<mxfile host="Electron" agent="Mozilla/5.0 (Windows NT 10.0; Win64; x64) AppleWebKit/537.36 (KHTML, like Gecko) draw.io/26.2.2 Chrome/134.0.6998.178 Electron/35.1.2 Safari/537.36" version="26.2.2">
  <diagram name="Page-1" id="42789a77-a242-8287-6e28-9cd8cfd52e62">
    <mxGraphModel dx="1215" dy="1572" grid="1" gridSize="10" guides="1" tooltips="1" connect="1" arrows="1" fold="1" page="1" pageScale="1" pageWidth="1100" pageHeight="850" background="none" math="0" shadow="0">
      <root>
        <mxCell id="0" />
        <mxCell id="1" parent="0" />
        <mxCell id="rualuSy0mmf8_MVeIvTd-1" value="EGBT22&lt;br&gt;&lt;div&gt;Geographic&lt;/div&gt;&lt;div&gt;(ellipsoidal)&lt;/div&gt;" style="rounded=1;whiteSpace=wrap;html=1;" parent="1" vertex="1">
          <mxGeometry x="280" y="-30" width="120" height="50" as="geometry" />
        </mxCell>
        <mxCell id="rualuSy0mmf8_MVeIvTd-2" value="&lt;div&gt;ETRS89_DREF91&lt;br&gt;UTM33&lt;/div&gt;&lt;div&gt;(ellipsoidal)&lt;/div&gt;" style="rounded=1;whiteSpace=wrap;html=1;" parent="1" vertex="1">
          <mxGeometry x="480" y="90" width="120" height="50" as="geometry" />
        </mxCell>
        <mxCell id="rualuSy0mmf8_MVeIvTd-3" value="&lt;div&gt;DB_Ref&lt;/div&gt;&lt;div&gt;GK5&lt;/div&gt;&lt;div&gt;(ellipsoidal)&lt;/div&gt;" style="rounded=1;whiteSpace=wrap;html=1;" parent="1" vertex="1">
          <mxGeometry x="480" y="450" width="120" height="50" as="geometry" />
        </mxCell>
        <mxCell id="rualuSy0mmf8_MVeIvTd-4" value="&lt;div&gt;&lt;div&gt;ETRS89_DREF91&lt;/div&gt;&lt;div&gt;Geocentric&lt;/div&gt;&lt;/div&gt;" style="rounded=1;whiteSpace=wrap;html=1;" parent="1" vertex="1">
          <mxGeometry x="80" y="90" width="120" height="50" as="geometry" />
        </mxCell>
        <mxCell id="rualuSy0mmf8_MVeIvTd-5" value="&lt;div&gt;&lt;span style=&quot;background-color: transparent; color: light-dark(rgb(0, 0, 0), rgb(255, 255, 255));&quot;&gt;ETRS89_DREF91&lt;/span&gt;&lt;/div&gt;&lt;div&gt;Geographic&lt;/div&gt;&lt;div&gt;(ellipsoidal)&lt;/div&gt;" style="rounded=1;whiteSpace=wrap;html=1;" parent="1" vertex="1">
          <mxGeometry x="280" y="90" width="120" height="50" as="geometry" />
        </mxCell>
        <mxCell id="rualuSy0mmf8_MVeIvTd-7" value="&lt;div&gt;&lt;span style=&quot;background-color: transparent; color: light-dark(rgb(0, 0, 0), rgb(255, 255, 255));&quot;&gt;ETRS89_CZ&lt;/span&gt;&lt;/div&gt;&lt;div&gt;Geocentric&lt;/div&gt;" style="rounded=1;whiteSpace=wrap;html=1;" parent="1" vertex="1">
          <mxGeometry x="80" y="-270" width="120" height="50" as="geometry" />
        </mxCell>
        <mxCell id="rualuSy0mmf8_MVeIvTd-11" value="" style="endArrow=classic;startArrow=classic;html=1;rounded=0;noEdgeStyle=1;edgeStyle=orthogonalEdgeStyle;" parent="1" source="o3w_Mobauw8rWiZ5uJAG-4" target="rualuSy0mmf8_MVeIvTd-1" edge="1">
          <mxGeometry width="50" height="50" relative="1" as="geometry">
            <mxPoint x="530" y="490" as="sourcePoint" />
            <mxPoint x="580" y="440" as="targetPoint" />
            <Array as="points" />
          </mxGeometry>
        </mxCell>
        <mxCell id="rualuSy0mmf8_MVeIvTd-17" value="&lt;div&gt;convert&lt;/div&gt;" style="edgeLabel;html=1;align=center;verticalAlign=middle;resizable=0;points=[];" parent="rualuSy0mmf8_MVeIvTd-11" vertex="1" connectable="0">
          <mxGeometry x="-0.0116" y="1" relative="1" as="geometry">
            <mxPoint as="offset" />
          </mxGeometry>
        </mxCell>
        <mxCell id="lnWcoEWZ4ewHPQfxEo_i-9" value="" style="endArrow=classic;startArrow=classic;html=1;rounded=0;noEdgeStyle=1;edgeStyle=orthogonalEdgeStyle;" parent="1" source="1UwG5ZyLQjh1s3nklYpK-19" target="rualuSy0mmf8_MVeIvTd-3" edge="1">
          <mxGeometry width="50" height="50" relative="1" as="geometry">
            <mxPoint x="240" y="205" as="sourcePoint" />
            <mxPoint x="290" y="-330" as="targetPoint" />
            <Array as="points" />
          </mxGeometry>
        </mxCell>
        <mxCell id="lnWcoEWZ4ewHPQfxEo_i-10" value="convert" style="edgeLabel;html=1;align=center;verticalAlign=middle;resizable=0;points=[];" parent="lnWcoEWZ4ewHPQfxEo_i-9" vertex="1" connectable="0">
          <mxGeometry x="0.0032" y="4" relative="1" as="geometry">
            <mxPoint x="1" y="4" as="offset" />
          </mxGeometry>
        </mxCell>
        <mxCell id="lnWcoEWZ4ewHPQfxEo_i-12" value="" style="endArrow=classic;startArrow=classic;html=1;rounded=0;noEdgeStyle=1;edgeStyle=orthogonalEdgeStyle;" parent="1" source="rualuSy0mmf8_MVeIvTd-4" target="rualuSy0mmf8_MVeIvTd-5" edge="1">
          <mxGeometry width="50" height="50" relative="1" as="geometry">
            <mxPoint x="650" y="20" as="sourcePoint" />
            <mxPoint x="770" y="20" as="targetPoint" />
            <Array as="points" />
          </mxGeometry>
        </mxCell>
        <mxCell id="lnWcoEWZ4ewHPQfxEo_i-13" value="convert" style="edgeLabel;html=1;align=center;verticalAlign=middle;resizable=0;points=[];" parent="lnWcoEWZ4ewHPQfxEo_i-12" vertex="1" connectable="0">
          <mxGeometry x="-0.004" y="-2" relative="1" as="geometry">
            <mxPoint as="offset" />
          </mxGeometry>
        </mxCell>
        <mxCell id="lnWcoEWZ4ewHPQfxEo_i-32" value="" style="endArrow=classic;startArrow=classic;html=1;rounded=0;noEdgeStyle=1;edgeStyle=orthogonalEdgeStyle;" parent="1" source="rualuSy0mmf8_MVeIvTd-7" target="o3w_Mobauw8rWiZ5uJAG-4" edge="1">
          <mxGeometry width="50" height="50" relative="1" as="geometry">
            <mxPoint x="634" y="-210" as="sourcePoint" />
            <mxPoint x="560" y="285" as="targetPoint" />
          </mxGeometry>
        </mxCell>
        <mxCell id="lnWcoEWZ4ewHPQfxEo_i-33" value="transform" style="edgeLabel;html=1;align=center;verticalAlign=middle;resizable=0;points=[];" parent="lnWcoEWZ4ewHPQfxEo_i-32" vertex="1" connectable="0">
          <mxGeometry x="-0.0043" y="-1" relative="1" as="geometry">
            <mxPoint as="offset" />
          </mxGeometry>
        </mxCell>
        <mxCell id="1UwG5ZyLQjh1s3nklYpK-1" value="&lt;div&gt;&lt;span style=&quot;background-color: transparent; color: light-dark(rgb(0, 0, 0), rgb(255, 255, 255));&quot;&gt;ETRS89_DREF91&lt;/span&gt;&lt;/div&gt;&lt;div&gt;Geographic&lt;/div&gt;&lt;div&gt;(DHHN2016)&lt;/div&gt;" style="rounded=1;whiteSpace=wrap;html=1;" parent="1" vertex="1">
          <mxGeometry x="280" y="210" width="120" height="50" as="geometry" />
        </mxCell>
        <mxCell id="1UwG5ZyLQjh1s3nklYpK-2" value="" style="endArrow=classic;startArrow=classic;html=1;rounded=0;noEdgeStyle=1;edgeStyle=orthogonalEdgeStyle;" parent="1" source="1UwG5ZyLQjh1s3nklYpK-1" target="rualuSy0mmf8_MVeIvTd-5" edge="1">
          <mxGeometry width="50" height="50" relative="1" as="geometry">
            <mxPoint x="800" y="330" as="sourcePoint" />
            <mxPoint x="800" y="410" as="targetPoint" />
          </mxGeometry>
        </mxCell>
        <mxCell id="1UwG5ZyLQjh1s3nklYpK-3" value="t&lt;span style=&quot;background-color: light-dark(#ffffff, var(--ge-dark-color, #121212)); color: light-dark(rgb(0, 0, 0), rgb(255, 255, 255));&quot;&gt;ransform&lt;/span&gt;&lt;div&gt;&lt;div&gt;GCG2016&lt;/div&gt;&lt;/div&gt;" style="edgeLabel;html=1;align=center;verticalAlign=middle;resizable=0;points=[];" parent="1UwG5ZyLQjh1s3nklYpK-2" vertex="1" connectable="0">
          <mxGeometry x="-0.0043" y="-1" relative="1" as="geometry">
            <mxPoint x="-1" y="-5" as="offset" />
          </mxGeometry>
        </mxCell>
        <mxCell id="1UwG5ZyLQjh1s3nklYpK-6" value="" style="endArrow=classic;startArrow=classic;html=1;rounded=0;noEdgeStyle=1;edgeStyle=orthogonalEdgeStyle;" parent="1" source="rualuSy0mmf8_MVeIvTd-5" target="rualuSy0mmf8_MVeIvTd-2" edge="1">
          <mxGeometry width="50" height="50" relative="1" as="geometry">
            <mxPoint x="210" y="705" as="sourcePoint" />
            <mxPoint x="723" y="663" as="targetPoint" />
            <Array as="points" />
          </mxGeometry>
        </mxCell>
        <mxCell id="1UwG5ZyLQjh1s3nklYpK-7" value="convert" style="edgeLabel;html=1;align=center;verticalAlign=middle;resizable=0;points=[];" parent="1UwG5ZyLQjh1s3nklYpK-6" vertex="1" connectable="0">
          <mxGeometry x="0.0032" y="4" relative="1" as="geometry">
            <mxPoint y="4" as="offset" />
          </mxGeometry>
        </mxCell>
        <mxCell id="1UwG5ZyLQjh1s3nklYpK-15" value="&lt;div&gt;&lt;span style=&quot;background-color: transparent; color: light-dark(rgb(0, 0, 0), rgb(255, 255, 255));&quot;&gt;DB_Ref&lt;/span&gt;&lt;/div&gt;&lt;div&gt;Geographic&lt;/div&gt;&lt;div&gt;(DHHN2016)&lt;/div&gt;" style="rounded=1;whiteSpace=wrap;html=1;" parent="1" vertex="1">
          <mxGeometry x="280" y="330" width="120" height="50" as="geometry" />
        </mxCell>
        <mxCell id="1UwG5ZyLQjh1s3nklYpK-18" value="&lt;div&gt;&lt;span style=&quot;background-color: transparent; color: light-dark(rgb(0, 0, 0), rgb(255, 255, 255));&quot;&gt;DB_Ref&lt;/span&gt;&lt;/div&gt;&lt;div&gt;Geocentric&lt;/div&gt;" style="rounded=1;whiteSpace=wrap;html=1;" parent="1" vertex="1">
          <mxGeometry x="80" y="450" width="120" height="50" as="geometry" />
        </mxCell>
        <mxCell id="1UwG5ZyLQjh1s3nklYpK-19" value="&lt;div&gt;&lt;span style=&quot;background-color: transparent; color: light-dark(rgb(0, 0, 0), rgb(255, 255, 255));&quot;&gt;DB_Ref&lt;/span&gt;&lt;/div&gt;&lt;div&gt;Geographic&lt;/div&gt;&lt;div&gt;(ellipsoidal)&lt;/div&gt;" style="rounded=1;whiteSpace=wrap;html=1;" parent="1" vertex="1">
          <mxGeometry x="280" y="450" width="120" height="50" as="geometry" />
        </mxCell>
        <mxCell id="1UwG5ZyLQjh1s3nklYpK-21" value="" style="endArrow=classic;startArrow=classic;html=1;rounded=0;noEdgeStyle=1;edgeStyle=orthogonalEdgeStyle;" parent="1" source="1UwG5ZyLQjh1s3nklYpK-18" target="rualuSy0mmf8_MVeIvTd-4" edge="1">
          <mxGeometry width="50" height="50" relative="1" as="geometry">
            <mxPoint x="600" y="560" as="sourcePoint" />
            <mxPoint x="350" y="630" as="targetPoint" />
            <Array as="points" />
          </mxGeometry>
        </mxCell>
        <mxCell id="1UwG5ZyLQjh1s3nklYpK-22" value="transform" style="edgeLabel;html=1;align=center;verticalAlign=middle;resizable=0;points=[];" parent="1UwG5ZyLQjh1s3nklYpK-21" vertex="1" connectable="0">
          <mxGeometry x="-0.0043" y="-1" relative="1" as="geometry">
            <mxPoint y="1" as="offset" />
          </mxGeometry>
        </mxCell>
        <mxCell id="1UwG5ZyLQjh1s3nklYpK-27" value="" style="endArrow=classic;startArrow=classic;html=1;rounded=0;noEdgeStyle=1;edgeStyle=orthogonalEdgeStyle;" parent="1" source="1UwG5ZyLQjh1s3nklYpK-19" target="1UwG5ZyLQjh1s3nklYpK-18" edge="1">
          <mxGeometry width="50" height="50" relative="1" as="geometry">
            <mxPoint x="250" y="435" as="sourcePoint" />
            <mxPoint x="170" y="435" as="targetPoint" />
            <Array as="points" />
          </mxGeometry>
        </mxCell>
        <mxCell id="1UwG5ZyLQjh1s3nklYpK-28" value="convert" style="edgeLabel;html=1;align=center;verticalAlign=middle;resizable=0;points=[];" parent="1UwG5ZyLQjh1s3nklYpK-27" vertex="1" connectable="0">
          <mxGeometry x="0.0032" y="4" relative="1" as="geometry">
            <mxPoint x="1" y="-4" as="offset" />
          </mxGeometry>
        </mxCell>
        <mxCell id="i8dVx8tBHgeBRHUq2mDn-1" value="" style="endArrow=classic;startArrow=classic;html=1;rounded=0;noEdgeStyle=1;edgeStyle=orthogonalEdgeStyle;" parent="1" source="1UwG5ZyLQjh1s3nklYpK-15" target="1UwG5ZyLQjh1s3nklYpK-19" edge="1">
          <mxGeometry width="50" height="50" relative="1" as="geometry">
            <mxPoint x="510" y="190" as="sourcePoint" />
            <mxPoint x="510" y="100" as="targetPoint" />
            <Array as="points" />
          </mxGeometry>
        </mxCell>
        <mxCell id="i8dVx8tBHgeBRHUq2mDn-2" value="&lt;div&gt;&lt;span style=&quot;background-color: light-dark(#ffffff, var(--ge-dark-color, #121212)); color: light-dark(rgb(0, 0, 0), rgb(255, 255, 255));&quot;&gt;iterative&lt;/span&gt;&lt;/div&gt;&lt;div&gt;&lt;span style=&quot;background-color: light-dark(#ffffff, var(--ge-dark-color, #121212)); color: light-dark(rgb(0, 0, 0), rgb(255, 255, 255));&quot;&gt;transform&lt;/span&gt;&lt;/div&gt;&lt;div&gt;GCG2016&lt;/div&gt;" style="edgeLabel;html=1;align=center;verticalAlign=middle;resizable=0;points=[];" parent="i8dVx8tBHgeBRHUq2mDn-1" vertex="1" connectable="0">
          <mxGeometry x="-0.0222" relative="1" as="geometry">
            <mxPoint as="offset" />
          </mxGeometry>
        </mxCell>
        <mxCell id="o3w_Mobauw8rWiZ5uJAG-1" value="&lt;div&gt;&lt;span style=&quot;background-color: transparent; color: light-dark(rgb(0, 0, 0), rgb(255, 255, 255));&quot;&gt;ETRS89_CZ&lt;/span&gt;&lt;/div&gt;&lt;div&gt;Geographic&lt;/div&gt;&lt;div&gt;(ellipsoidal)&lt;/div&gt;" style="rounded=1;whiteSpace=wrap;html=1;" parent="1" vertex="1">
          <mxGeometry x="280" y="-270" width="120" height="50" as="geometry" />
        </mxCell>
        <mxCell id="o3w_Mobauw8rWiZ5uJAG-2" value="" style="endArrow=classic;startArrow=classic;html=1;rounded=0;noEdgeStyle=1;edgeStyle=orthogonalEdgeStyle;" parent="1" source="o3w_Mobauw8rWiZ5uJAG-1" target="rualuSy0mmf8_MVeIvTd-7" edge="1">
          <mxGeometry width="50" height="50" relative="1" as="geometry">
            <mxPoint x="265" y="270" as="sourcePoint" />
            <mxPoint x="155" y="210" as="targetPoint" />
            <Array as="points" />
          </mxGeometry>
        </mxCell>
        <mxCell id="o3w_Mobauw8rWiZ5uJAG-3" value="&lt;div&gt;convert&lt;/div&gt;" style="edgeLabel;html=1;align=center;verticalAlign=middle;resizable=0;points=[];" parent="o3w_Mobauw8rWiZ5uJAG-2" vertex="1" connectable="0">
          <mxGeometry x="-0.0116" y="1" relative="1" as="geometry">
            <mxPoint as="offset" />
          </mxGeometry>
        </mxCell>
        <mxCell id="o3w_Mobauw8rWiZ5uJAG-4" value="&lt;div&gt;EGBT22&lt;/div&gt;&lt;div&gt;Geocentric&lt;/div&gt;" style="rounded=1;whiteSpace=wrap;html=1;" parent="1" vertex="1">
          <mxGeometry x="80" y="-30" width="120" height="50" as="geometry" />
        </mxCell>
        <mxCell id="o3w_Mobauw8rWiZ5uJAG-5" value="" style="endArrow=classic;startArrow=classic;html=1;rounded=0;noEdgeStyle=1;edgeStyle=orthogonalEdgeStyle;" parent="1" source="o3w_Mobauw8rWiZ5uJAG-4" target="rualuSy0mmf8_MVeIvTd-4" edge="1">
          <mxGeometry width="50" height="50" relative="1" as="geometry">
            <mxPoint x="650" y="295" as="sourcePoint" />
            <mxPoint x="570" y="295" as="targetPoint" />
          </mxGeometry>
        </mxCell>
        <mxCell id="o3w_Mobauw8rWiZ5uJAG-6" value="transform" style="edgeLabel;html=1;align=center;verticalAlign=middle;resizable=0;points=[];" parent="o3w_Mobauw8rWiZ5uJAG-5" vertex="1" connectable="0">
          <mxGeometry x="-0.0043" y="-1" relative="1" as="geometry">
            <mxPoint as="offset" />
          </mxGeometry>
        </mxCell>
        <mxCell id="o3w_Mobauw8rWiZ5uJAG-7" value="EGBT22&lt;br&gt;&lt;div&gt;Geographic&lt;/div&gt;&lt;div&gt;(DHHN2016)&lt;/div&gt;" style="rounded=1;whiteSpace=wrap;html=1;" parent="1" vertex="1">
          <mxGeometry x="280" y="-150" width="120" height="50" as="geometry" />
        </mxCell>
        <mxCell id="o3w_Mobauw8rWiZ5uJAG-8" value="" style="endArrow=classic;startArrow=classic;html=1;rounded=0;noEdgeStyle=1;edgeStyle=orthogonalEdgeStyle;" parent="1" source="rualuSy0mmf8_MVeIvTd-1" target="o3w_Mobauw8rWiZ5uJAG-7" edge="1">
          <mxGeometry width="50" height="50" relative="1" as="geometry">
            <mxPoint x="370" y="305" as="sourcePoint" />
            <mxPoint x="450" y="305" as="targetPoint" />
          </mxGeometry>
        </mxCell>
        <mxCell id="o3w_Mobauw8rWiZ5uJAG-9" value="&lt;div&gt;iterative&lt;/div&gt;&lt;div&gt;t&lt;span style=&quot;background-color: light-dark(#ffffff, var(--ge-dark-color, #121212)); color: light-dark(rgb(0, 0, 0), rgb(255, 255, 255));&quot;&gt;ransform&lt;/span&gt;&lt;/div&gt;&lt;div&gt;&lt;div&gt;GCG2016&lt;/div&gt;&lt;/div&gt;" style="edgeLabel;html=1;align=center;verticalAlign=middle;resizable=0;points=[];" parent="o3w_Mobauw8rWiZ5uJAG-8" vertex="1" connectable="0">
          <mxGeometry x="-0.0043" y="-1" relative="1" as="geometry">
            <mxPoint y="-1" as="offset" />
          </mxGeometry>
        </mxCell>
        <mxCell id="o3w_Mobauw8rWiZ5uJAG-15" value="EGBT22&lt;br&gt;&lt;div&gt;EGBT_LDP&lt;/div&gt;&lt;div&gt;(ellipsoidal)&lt;/div&gt;" style="rounded=1;whiteSpace=wrap;html=1;" parent="1" vertex="1">
          <mxGeometry x="480" y="-30" width="120" height="50" as="geometry" />
        </mxCell>
        <mxCell id="o3w_Mobauw8rWiZ5uJAG-16" value="" style="endArrow=classic;startArrow=classic;html=1;rounded=0;noEdgeStyle=1;edgeStyle=orthogonalEdgeStyle;" parent="1" source="rualuSy0mmf8_MVeIvTd-1" target="o3w_Mobauw8rWiZ5uJAG-15" edge="1">
          <mxGeometry width="50" height="50" relative="1" as="geometry">
            <mxPoint x="960" y="405" as="sourcePoint" />
            <mxPoint x="860" y="230" as="targetPoint" />
            <Array as="points" />
          </mxGeometry>
        </mxCell>
        <mxCell id="o3w_Mobauw8rWiZ5uJAG-17" value="&lt;div&gt;convert&lt;/div&gt;" style="edgeLabel;html=1;align=center;verticalAlign=middle;resizable=0;points=[];" parent="o3w_Mobauw8rWiZ5uJAG-16" vertex="1" connectable="0">
          <mxGeometry x="-0.0116" y="1" relative="1" as="geometry">
            <mxPoint as="offset" />
          </mxGeometry>
        </mxCell>
        <mxCell id="iM0_tNegboxX75YYDpcY-1" value="&lt;div&gt;ETRS89_DREF91&lt;br&gt;UTM33&lt;/div&gt;&lt;div&gt;(DHHN2016)&lt;/div&gt;" style="rounded=1;whiteSpace=wrap;html=1;" parent="1" vertex="1">
          <mxGeometry x="480" y="210" width="120" height="50" as="geometry" />
        </mxCell>
        <mxCell id="iM0_tNegboxX75YYDpcY-2" value="&lt;div&gt;DB_Ref&lt;/div&gt;&lt;div&gt;GK5&lt;/div&gt;&lt;div&gt;(DHHN2016)&lt;/div&gt;" style="rounded=1;whiteSpace=wrap;html=1;" parent="1" vertex="1">
          <mxGeometry x="480" y="330" width="120" height="50" as="geometry" />
        </mxCell>
        <mxCell id="iM0_tNegboxX75YYDpcY-3" value="EGBT22&lt;br&gt;&lt;div&gt;EGBT_LDP&lt;/div&gt;&lt;div&gt;(DHHN2016)&lt;/div&gt;" style="rounded=1;whiteSpace=wrap;html=1;" parent="1" vertex="1">
          <mxGeometry x="480" y="-150" width="120" height="50" as="geometry" />
        </mxCell>
        <mxCell id="iM0_tNegboxX75YYDpcY-4" value="" style="endArrow=classic;startArrow=classic;html=1;rounded=0;noEdgeStyle=1;edgeStyle=orthogonalEdgeStyle;" parent="1" source="o3w_Mobauw8rWiZ5uJAG-7" target="iM0_tNegboxX75YYDpcY-3" edge="1">
          <mxGeometry width="50" height="50" relative="1" as="geometry">
            <mxPoint x="770" y="305" as="sourcePoint" />
            <mxPoint x="850" y="305" as="targetPoint" />
            <Array as="points" />
          </mxGeometry>
        </mxCell>
        <mxCell id="iM0_tNegboxX75YYDpcY-5" value="&lt;div&gt;convert&lt;/div&gt;" style="edgeLabel;html=1;align=center;verticalAlign=middle;resizable=0;points=[];" parent="iM0_tNegboxX75YYDpcY-4" vertex="1" connectable="0">
          <mxGeometry x="-0.0116" y="1" relative="1" as="geometry">
            <mxPoint as="offset" />
          </mxGeometry>
        </mxCell>
        <mxCell id="iM0_tNegboxX75YYDpcY-6" value="" style="endArrow=classic;startArrow=classic;html=1;rounded=0;noEdgeStyle=1;edgeStyle=orthogonalEdgeStyle;" parent="1" source="1UwG5ZyLQjh1s3nklYpK-1" target="iM0_tNegboxX75YYDpcY-1" edge="1">
          <mxGeometry width="50" height="50" relative="1" as="geometry">
            <mxPoint x="420" y="605" as="sourcePoint" />
            <mxPoint x="340" y="605" as="targetPoint" />
            <Array as="points" />
          </mxGeometry>
        </mxCell>
        <mxCell id="iM0_tNegboxX75YYDpcY-7" value="convert" style="edgeLabel;html=1;align=center;verticalAlign=middle;resizable=0;points=[];" parent="iM0_tNegboxX75YYDpcY-6" vertex="1" connectable="0">
          <mxGeometry x="0.0032" y="4" relative="1" as="geometry">
            <mxPoint y="4" as="offset" />
          </mxGeometry>
        </mxCell>
        <mxCell id="iM0_tNegboxX75YYDpcY-8" value="" style="endArrow=classic;startArrow=classic;html=1;rounded=0;noEdgeStyle=1;edgeStyle=orthogonalEdgeStyle;" parent="1" source="1UwG5ZyLQjh1s3nklYpK-15" target="iM0_tNegboxX75YYDpcY-2" edge="1">
          <mxGeometry width="50" height="50" relative="1" as="geometry">
            <mxPoint x="250" y="185" as="sourcePoint" />
            <mxPoint x="170" y="185" as="targetPoint" />
            <Array as="points" />
          </mxGeometry>
        </mxCell>
        <mxCell id="iM0_tNegboxX75YYDpcY-9" value="convert" style="edgeLabel;html=1;align=center;verticalAlign=middle;resizable=0;points=[];" parent="iM0_tNegboxX75YYDpcY-8" vertex="1" connectable="0">
          <mxGeometry x="0.0032" y="4" relative="1" as="geometry">
            <mxPoint x="1" y="4" as="offset" />
          </mxGeometry>
        </mxCell>
      </root>
    </mxGraphModel>
  </diagram>
</mxfile>
